<?xml version="1.0" encoding="UTF-8" standalone="no"?>
<!-- Created with Inkscape (http://www.inkscape.org/) -->

<svg
   xmlns:dc="http://purl.org/dc/elements/1.1/"
   xmlns:cc="http://creativecommons.org/ns#"
   xmlns:rdf="http://www.w3.org/1999/02/22-rdf-syntax-ns#"
   xmlns:svg="http://www.w3.org/2000/svg"
   xmlns="http://www.w3.org/2000/svg"
   xmlns:xlink="http://www.w3.org/1999/xlink"
   xmlns:sodipodi="http://sodipodi.sourceforge.net/DTD/sodipodi-0.dtd"
   xmlns:inkscape="http://www.inkscape.org/namespaces/inkscape"
   width="64"
   version="1.1"
   height="64"
   id="svg2"
   inkscape:version="0.91 r13725"
   sodipodi:docname="bookmarks.svg">
  <sodipodi:namedview
     pagecolor="#ffffff"
     bordercolor="#666666"
     borderopacity="1"
     objecttolerance="10"
     gridtolerance="10"
     guidetolerance="10"
     inkscape:pageopacity="0"
     inkscape:pageshadow="2"
     inkscape:window-width="1920"
     inkscape:window-height="1015"
     id="namedview19"
     showgrid="false"
     inkscape:zoom="1.3037281"
     inkscape:cx="-292.87536"
     inkscape:cy="-21.569379"
     inkscape:window-x="0"
     inkscape:window-y="0"
     inkscape:window-maximized="1"
     inkscape:current-layer="layer1" />
  <defs
     id="defs5455">
    <linearGradient
       gradientTransform="translate(4e-6,-1.01e-4)"
       inkscape:collect="always"
       xlink:href="#linearGradient4176"
       id="linearGradient4182"
       x1="429.57144"
       y1="541.79797"
       x2="429.57144"
       y2="496.798"
       gradientUnits="userSpaceOnUse" />
    <linearGradient
       inkscape:collect="always"
       id="linearGradient4176">
      <stop
         style="stop-color:#3bad7e;stop-opacity:1"
         offset="0"
         id="stop4178" />
      <stop
         style="stop-color:#45cc87;stop-opacity:1"
         offset="1"
         id="stop4180" />
    </linearGradient>
  </defs>
  <metadata
     id="metadata5458">
    <rdf:RDF>
      <cc:Work
         rdf:about="">
        <dc:format>image/svg+xml</dc:format>
        <dc:type
           rdf:resource="http://purl.org/dc/dcmitype/StillImage" />
      </cc:Work>
    </rdf:RDF>
  </metadata>
  <g
     inkscape:label="Capa 1"
     inkscape:groupmode="layer"
     id="layer1"
     transform="matrix(1 0 0 1 -384.57143 -483.798)">
    <path
       inkscape:connector-curvature="0"
       style="fill:#ffffff;fill-opacity:0.235294;fill-rule:evenodd"
       id="path4224"
       d="m 387.57144,503.79802 0,1 19.99999,0 3,-5 -4,4 z" />
    <path
       style="fill:#0f9b71;fill-opacity:1;fill-rule:evenodd;stroke:none;stroke-width:1px;stroke-linecap:butt;stroke-linejoin:miter;stroke-opacity:1"
       d="m 387.57144,489.7979 23.99999,0 5,6 29,0 10e-6,38 -58,0 z"
       id="rect4160"
       inkscape:connector-curvature="0"
       sodipodi:nodetypes="ccccccc" />
    <path
       d="m 411.57143,489.7979 5,7 2,0 27,0 0,-1 -27,0 -2,0 z"
       id="path4166"
       style="fill:#ffffff;fill-opacity:0.235294;fill-rule:evenodd"
       inkscape:connector-curvature="0"
       sodipodi:nodetypes="cccccccc" />
    <path
       style="fill:url(#linearGradient4182);fill-opacity:1;fill-rule:evenodd;stroke:none;stroke-width:1px;stroke-linecap:butt;stroke-linejoin:miter;stroke-opacity:1"
       d="m 387.57143,502.7979 24,0 5,-6 29,0 10e-6,45 -58,0 z"
       id="rect3347"
       inkscape:connector-curvature="0"
       sodipodi:nodetypes="ccccccc" />
    <path
       sodipodi:nodetypes="cccccccc"
       inkscape:connector-curvature="0"
       style="fill:#ffffff;fill-opacity:0.235294;fill-rule:evenodd"
       id="path4168"
       d="m 416.57143,496.7979 -4,7 -4,0 -21,0 0,-1 21,0 3,0 z" />
    <path
       inkscape:connector-curvature="0"
       style="fill:#000000;fill-opacity:0.23529412;fill-rule:evenodd"
       id="path4228"
       d="m 387.57143,501.7979 0,1 24,0 5,-6 -6,5 z"
       sodipodi:nodetypes="cccccc" />
    <path
       inkscape:connector-curvature="0"
       style="fill-opacity:0.235294"
       id="path4151-2"
       d="m 387.57143,540.798 0,1 1,0 56,0 1,0 0,-1 -1,0 -56,0 -1,0 z" />
    <rect
       style="fill:#000000;fill-opacity:0.23529412;stroke:none"
       id="rect4184"
       width="17.999998"
       height="3.9999897"
       x="390.57144"
       y="493.79788" />
    <rect
       y="494.79788"
       x="391.57144"
       height="1.9999911"
       width="16.000004"
       id="rect4186"
       style="fill:#ffffff;fill-opacity:1;stroke:none" />
    <path
       style="fill:#17c4fc;fill-opacity:1;stroke:none"
       d="m 391.57142,494.7979 6.00001,0 0,2 -6.00001,0 z"
       id="rect4190"
       inkscape:connector-curvature="0"
       sodipodi:nodetypes="ccccc" />
    <path
       inkscape:connector-curvature="0"
       style="fill:#000000;color:#000000;stroke-width:2;fill-opacity:0.23529412"
       id="path3024"
       d="m 416.57143,510.79801 c -3,6.99999 0,0 -3,6.99999 l -6.99998,1 0,0 -2e-5,0 5,5 -1,6.99998 0,2e-5 0,0 6,-4 6,3.99998 0,0 0,0 -1,-6.99998 5.00002,-5 0,0 0,0 -7.00002,-1 c -1.22917,-2.02083 10e-6,0 -3,-6.99999 z m 0,2.53124 2.09375,4.875 0.21875,0.5 0.53125,0.0937 5,0.71875 -3.5625,3.5625 -0.34375,0.375 0.0625,0.5 0.6875,4.75 -4.125,-2.75 -0.5625,-0.34375 -0.5625,0.34375 -4.125,2.75 0.6875,-4.75 0.0625,-0.5 -0.34375,-0.375 -3.5625,-3.5625 5,-0.71875 0.53125,-0.0937 0.21875,-0.5 z" />
  </g>
</svg>
